<svg width="300" height="200" xmlns="http://www.w3.org/2000/svg">
  <!-- Background -->
  <defs>
    <linearGradient id="logoGradient" x1="0%" y1="0%" x2="100%" y2="100%">
      <stop offset="0%" stop-color="#8957ff" stop-opacity="1"/>
      <stop offset="100%" stop-color="#5e35b1" stop-opacity="1"/>
    </linearGradient>
    <filter id="glow">
      <feGaussianBlur stdDeviation="5" result="blur"/>
      <feComposite in="SourceGraphic" in2="blur" operator="over"/>
    </filter>
    <filter id="noise" x="0%" y="0%" width="100%" height="100%">
      <feTurbulence type="fractalNoise" baseFrequency="0.65" numOctaves="3" stitchTiles="stitch"/>
      <feColorMatrix type="matrix" values="0 0 0 0 0, 0 0 0 0 0, 0 0 0 0 0, 0 0 0 0.5 0"/>
      <feComposite operator="in" in2="SourceGraphic" result="noisy"/>
    </filter>
  </defs>
  
  <!-- Main logo -->
  <g transform="translate(10, 30)">
    <!-- Background circle -->
    <circle cx="140" cy="70" r="130" fill="url(#logoGradient)" opacity="0.2"/>
    
    <!-- Fire emoji background (stylized) -->
    <path d="M140,20 C160,40 200,60 180,130 C160,160 120,160 100,130 C80,60 120,40 140,20 Z" 
          fill="#ff4500" opacity="0.7" filter="url(#noise)"/>
    
    <!-- DEGEN text -->
    <text x="140" y="70" font-family="Impact, sans-serif" font-size="48" 
          fill="white" text-anchor="middle" filter="url(#glow)">DEGEN</text>
    
    <!-- ROAST text -->
    <text x="140" y="110" font-family="Impact, sans-serif" font-size="36" 
          fill="#ffcc00" text-anchor="middle" filter="url(#glow)">ROAST</text>
    
    <!-- 3000 text with retro styling -->
    <text x="140" y="150" font-family="'Press Start 2P', monospace" font-size="24" 
          fill="#00ffcc" text-anchor="middle" stroke="#000000" stroke-width="1">3000</text>
  </g>
  
  <!-- Decorative elements -->
  <g>
    <!-- Diamond hands -->
    <path d="M40,40 L50,30 L60,40 L50,50 Z" fill="#00ffff" opacity="0.8"/>
    <path d="M230,40 L240,30 L250,40 L240,50 Z" fill="#00ffff" opacity="0.8"/>
    
    <!-- Moon -->
    <circle cx="260" cy="30" r="15" fill="#ffcc00" opacity="0.6"/>
    
    <!-- Rocket -->
    <path d="M30,160 L40,140 L50,160 Z" fill="#ff3366"/>
    <rect x="37" y="160" width="6" height="10" fill="#ff3366"/>
    
    <!-- Laser eyes (when activated) -->
    <line x1="120" y1="70" x2="80" y2="50" stroke="#ff0000" stroke-width="3" opacity="0.7"/>
    <line x1="160" y1="70" x2="200" y2="50" stroke="#ff0000" stroke-width="3" opacity="0.7"/>
  </g>
  
  <!-- Easter egg text hidden in the logo -->
  <text x="140" y="190" font-family="Arial" font-size="8" fill="#ffffff" opacity="0.3" text-anchor="middle">
    HODL FOR DEAR LIFE
  </text>
</svg> 